<?xml version="1.0" encoding="UTF-8" standalone="no"?>
<!-- Created with Inkscape (http://www.inkscape.org/) -->

<svg
   width="192"
   height="192"
   viewBox="0 0 192 192"
   version="1.1"
   id="svg1"
   xml:space="preserve"
   xmlns:xlink="http://www.w3.org/1999/xlink"
   xmlns="http://www.w3.org/2000/svg"
   xmlns:svg="http://www.w3.org/2000/svg"><defs
     id="defs1"><linearGradient
       id="linearGradient607"><stop
         style="stop-color:#b92929;stop-opacity:1;"
         offset="0.19152017"
         id="stop609" /><stop
         style="stop-color:#1b70c6;stop-opacity:1;"
         offset="0.51660746"
         id="stop610" /><stop
         style="stop-color:#fdff39;stop-opacity:1;"
         offset="1"
         id="stop608" /></linearGradient><filter
       style="color-interpolation-filters:sRGB"
       id="filter586"
       x="-0.06500756"
       y="-0.12404173"
       width="1.1300151"
       height="1.4720477"><feFlood
         result="flood"
         in="SourceGraphic"
         flood-opacity="0.380392"
         flood-color="rgb(0,0,0)"
         id="feFlood585" /><feGaussianBlur
         result="blur"
         in="SourceGraphic"
         stdDeviation="0.300000"
         id="feGaussianBlur585" /><feOffset
         result="offset"
         in="blur"
         dx="-0.000000"
         dy="1.300000"
         id="feOffset585" /><feComposite
         result="comp1"
         operator="in"
         in="flood"
         in2="offset"
         id="feComposite585" /><feComposite
         result="comp2"
         operator="over"
         in="SourceGraphic"
         in2="comp1"
         id="feComposite586" /></filter><filter
       style="color-interpolation-filters:sRGB"
       id="filter588"
       x="-0.020134852"
       y="-0.033774995"
       width="1.0402697"
       height="1.1285326"><feFlood
         result="flood"
         in="SourceGraphic"
         flood-opacity="0.380392"
         flood-color="rgb(0,0,0)"
         id="feFlood586" /><feGaussianBlur
         result="blur"
         in="SourceGraphic"
         stdDeviation="0.300000"
         id="feGaussianBlur586" /><feOffset
         result="offset"
         in="blur"
         dx="-0.000000"
         dy="1.300000"
         id="feOffset586" /><feComposite
         result="comp1"
         operator="in"
         in="flood"
         in2="offset"
         id="feComposite587" /><feComposite
         result="comp2"
         operator="over"
         in="SourceGraphic"
         in2="comp1"
         id="feComposite588" /></filter><linearGradient
       xlink:href="#linearGradient607"
       id="linearGradient609"
       x1="23.779869"
       y1="142.85802"
       x2="74.752525"
       y2="142.85802"
       gradientUnits="userSpaceOnUse"
       gradientTransform="matrix(3.7667258,0,0,3.7613533,-65.363671,-325.68203)" /></defs><g
     id="layer1"
     transform="translate(-24.208572,-115.65743)"><path
       style="display:inline;fill:url(#linearGradient609);fill-opacity:1;stroke:none;stroke-width:3.31235;stroke-miterlimit:4;stroke-dasharray:none;stroke-opacity:1"
       id="rect588"
       width="192"
       height="192"
       x="24.208572"
       y="115.65743"
       d="M 58.208572,115.65743 H 182.20857 a 34,34 45 0 1 34,34 v 124 a 34,34 135 0 1 -34,34 H 58.208572 a 34,34 45 0 1 -34,-34 v -124 a 34,34 135 0 1 34,-34 z" /><g
       id="g19"
       style="display:inline"
       transform="matrix(3.7795277,0,0,3.7795277,-65.776589,-330.02736)"><path
         d="m 48.857413,129.36243 c 3.3334,0.18044 6.70631,2.13334 9.79888,5.80378 2.46559,2.92629 6.39291,6.90124 7.45691,7.54734 l 0.974816,0.70677 -1.875627,2.01532 c -3.97192,3.74691 -8.317194,5.34647 -14.328928,5.22406 -1.70316,-0.0347 -3.762964,-0.15843 -5.445455,-0.48298 -3.61888,-0.69162 -5.362453,-2.40175 -7.719023,-6.61206 -1.59259,-2.84535 -3.795755,-5.33575 -5.542965,-6.42244 l -0.846895,-0.62692 2.001067,-0.38429 c 2.57382,-0.22975 5.00919,-1.43562 7.97161,-3.94705 2.39451,-2.02998 4.96296,-2.96187 7.55561,-2.82153 z m -5.45238,5.74849 c -0.44762,-6e-5 -0.81058,0.36267 -0.81081,0.81028 v 3.09025 c -4.5e-4,0.44196 0.35748,0.80058 0.79944,0.80099 0.44238,3e-5 0.80101,-0.3586 0.80098,-0.80099 v -3.09025 c 0.006,-0.44174 -0.34787,-0.80444 -0.78961,-0.81028 z m 7.46259,2.52077 c -0.33883,-0.005 -0.61309,0.0546 -0.78083,0.19379 -0.68709,0.57024 -0.25293,1.3554 0.8723,1.5782 2.93037,0.58022 3.61717,1.41148 2.24895,2.72231 -0.86341,0.82721 -0.96418,1.17935 -0.47645,1.66708 1.14356,1.14356 3.59683,-2.19235 2.81378,-3.82612 -0.52447,-1.09427 -3.20947,-2.31443 -4.67775,-2.33526 z"
         style="fill:#ffffff;filter:url(#filter588)"
         id="path1" /><path
         style="color:#000000;display:inline;fill:#ffffff;-inkscape-stroke:none;filter:url(#filter586)"
         d="m 46.360906,151.15583 -3.603311,3.60569 a 0.88346852,0.88346852 89.968045 0 0 6.97e-4,1.2497 0.88075905,0.88075905 179.7418 0 0 1.245342,-0.006 l 3.493393,-3.49633 a 0.76086935,0.76086935 179.99399 0 1 1.076371,-1.1e-4 l 3.49765,3.49912 a 0.88077197,0.88077197 0.0284955 0 0 1.245241,6.2e-4 l 2.34e-4,-2.4e-4 a 0.879721,0.879721 90.027216 0 0 5.91e-4,-1.24449 l -3.607431,-3.60863 a 2.3673562,2.3673562 179.99526 0 0 -3.348777,2.8e-4 z"
         id="path16"
         transform="translate(-0.00284365,-0.2735221)" /></g></g></svg>
