<svg xmlns="http://www.w3.org/2000/svg" viewBox="0 0 1024 1024"><symbol id="happygood" viewBox="0 0 1024 1024"><path d="M594.432 513.024a165.888 126.464 0 1 0 331.776 0 165.888 126.464 0 1 0-331.776 0Z" fill="#FFFFFF"/><path d="M760.32 654.848c-99.84 0-181.248-63.488-181.248-141.824 0-78.336 81.408-141.824 181.248-141.824s181.248 63.488 181.248 141.824c0 78.336-81.408 141.824-181.248 141.824z m0-252.928c-82.944 0-150.528 49.664-150.528 111.104s67.584 111.104 150.528 111.104 150.528-49.664 150.528-111.104-67.584-111.104-150.528-111.104z" fill=""/><path d="M560.128 685.056a208.384 172.032 0 1 0 416.768 0 208.384 172.032 0 1 0-416.768 0Z" fill="#FFFFFF"/><path d="M768.512 872.448c-123.392 0-223.744-83.968-223.744-187.392 0-103.424 100.352-187.392 223.744-187.392s223.744 83.968 223.744 187.392c0 103.424-100.352 187.392-223.744 187.392z m0-344.064c-106.496 0-193.024 70.144-193.024 156.672s86.528 156.672 193.024 156.672c106.496 0 193.024-70.144 193.024-156.672s-86.528-156.672-193.024-156.672z" fill=""/><path d="M355.84 544.256m-312.832 0a312.832 312.832 0 1 0 625.664 0 312.832 312.832 0 1 0-625.664 0Z" fill="#F0D708"/><path d="M355.84 872.448c-181.248 0-328.192-147.456-328.192-328.192s147.456-328.192 328.192-328.192 328.192 147.456 328.192 328.192-146.944 328.192-328.192 328.192z m0-625.664c-164.352 0-297.472 133.632-297.472 297.472s133.632 297.472 297.472 297.472 297.472-133.632 297.472-297.472-133.632-297.472-297.472-297.472z" fill=""/><path d="M165.888 431.616h155.136v30.72H165.888z" fill=""/><path d="M464.896 430.592m-44.032 0a44.032 44.032 0 1 0 88.064 0 44.032 44.032 0 1 0-88.064 0Z" fill=""/><path d="M355.84 754.176c-158.208 0-204.288-151.04-204.8-152.576l29.696-8.704-14.848 4.096 14.848-4.608c1.536 5.12 40.448 130.56 175.616 130.56 134.144 0 166.912-124.416 168.448-129.536l29.696 7.168c-1.024 2.048-39.936 153.6-198.656 153.6z" fill=""/><path d="M713.728 302.08a205.312 122.88 90 1 0 245.76 0 205.312 122.88 90 1 0-245.76 0Z" fill="#FFFFFF"/><path d="M836.608 522.752c-77.312 0-138.24-96.768-138.24-220.672s60.928-220.672 138.24-220.672 138.24 96.768 138.24 220.672-60.928 220.672-138.24 220.672z m0-410.624c-58.368 0-107.52 87.04-107.52 189.952s49.152 189.952 107.52 189.952 107.52-87.04 107.52-189.952-49.152-189.952-107.52-189.952z" fill=""/><path d="M644.608 670.72a166.4 84.48 0 1 0 332.8 0 166.4 84.48 0 1 0-332.8 0Z" fill="#FFFFFF"/><path d="M811.008 770.56c-101.888 0-181.76-44.032-181.76-99.84s79.872-99.84 181.76-99.84 181.76 44.032 181.76 99.84-79.872 99.84-181.76 99.84z m0-168.96c-89.088 0-151.04 36.352-151.04 69.12s61.952 69.12 151.04 69.12 151.04-36.352 151.04-69.12-61.952-69.12-151.04-69.12z" fill=""/><path d="M657.408 552.448a166.912 93.696 0 1 0 333.824 0 166.912 93.696 0 1 0-333.824 0Z" fill="#FFFFFF"/><path d="M824.32 661.504c-102.4 0-182.272-48.128-182.272-109.056S721.92 443.392 824.32 443.392s182.272 48.128 182.272 109.056-79.872 109.056-182.272 109.056z m0-187.392c-81.92 0-151.552 35.84-151.552 78.336s69.632 78.336 151.552 78.336 151.552-35.84 151.552-78.336S906.24 474.112 824.32 474.112z" fill=""/></symbol><use xlink:href="#happygood" xmlns:xlink="http://www.w3.org/1999/xlink"/></svg>