<svg xmlns="http://www.w3.org/2000/svg" viewBox="0 0 1024 1024"><symbol id="share3" viewBox="0 0 1024 1024"><path d="M189.354667 437.333333a88.106667 88.106667 0 0 0-88.021334 88.021334c0 48.512 39.466667 87.978667 88.021334 87.978666A88.106667 88.106667 0 0 0 277.333333 525.312a88.106667 88.106667 0 0 0-88.021333-87.978667m0 234.666667A146.816 146.816 0 0 1 42.666667 525.312a146.816 146.816 0 0 1 146.688-146.645333 146.816 146.816 0 0 1 146.645333 146.688 146.816 146.816 0 0 1-146.688 146.645333z m645.333333-293.333333a146.816 146.816 0 0 1-146.645333-146.688A146.816 146.816 0 0 1 834.688 85.333333 146.816 146.816 0 0 1 981.333333 232.021333a146.816 146.816 0 0 1-146.688 146.645334z m0-234.666667A88.106667 88.106667 0 0 0 746.666667 232.021333c0 48.512 39.466667 87.978667 88.021333 87.978667a88.106667 88.106667 0 0 0 87.978667-88.021333 88.106667 88.106667 0 0 0-88.021334-87.978667z m0 821.333333a146.816 146.816 0 0 1-146.645333-146.688 146.816 146.816 0 0 1 146.688-146.645333A146.816 146.816 0 0 1 981.333333 818.688a146.816 146.816 0 0 1-146.688 146.645333z m0-234.666666a88.106667 88.106667 0 0 0-87.978666 88.021333c0 48.512 39.466667 87.978667 88.021333 87.978667a88.106667 88.106667 0 0 0 87.978667-88.021334 88.106667 88.106667 0 0 0-88.021334-87.978666z m-426.837333-267.093334l-26.282667-52.48 234.666667-117.333333 26.282667 52.48-234.666667 117.333333z m208.384 293.333334l-234.666667-117.333334 26.282667-52.48 234.666667 117.333334-26.282667 52.48z"/></symbol><use xlink:href="#share3" xmlns:xlink="http://www.w3.org/1999/xlink"/></svg>